<?xml version="1.0" encoding="utf-8" standalone="no"?>
<!DOCTYPE svg PUBLIC "-//W3C//DTD SVG 1.1//EN"
  "http://www.w3.org/Graphics/SVG/1.1/DTD/svg11.dtd">
<!-- Created with matplotlib (http://matplotlib.org/) -->
<svg height="345.6pt" version="1.1" viewBox="0 0 460.8 345.6" width="460.8pt" xmlns="http://www.w3.org/2000/svg" xmlns:xlink="http://www.w3.org/1999/xlink">
 <defs>
  <style type="text/css">
*{stroke-linecap:butt;stroke-linejoin:round;}
  </style>
 </defs>
 <g id="figure_1">
  <g id="patch_1">
   <path d="M 0 345.6 
L 460.8 345.6 
L 460.8 0 
L 0 0 
z
" style="fill:#ffffff;"/>
  </g>
  <g id="axes_1">
   <g id="patch_2">
    <path clip-path="url(#p4cb00b5c52)" d="M 73.832727 307.584 
L 106.298182 307.584 
L 106.298182 307.584 
L 73.832727 307.584 
z
" style="fill:#008000;"/>
   </g>
   <g id="patch_3">
    <path clip-path="url(#p4cb00b5c52)" d="M 106.298182 307.584 
L 138.763636 307.584 
L 138.763636 307.584 
L 106.298182 307.584 
z
" style="fill:#008000;"/>
   </g>
   <g id="patch_4">
    <path clip-path="url(#p4cb00b5c52)" d="M 138.763636 307.584 
L 171.229091 307.584 
L 171.229091 307.584 
L 138.763636 307.584 
z
" style="fill:#008000;"/>
   </g>
   <g id="patch_5">
    <path clip-path="url(#p4cb00b5c52)" d="M 171.229091 307.584 
L 203.694545 307.584 
L 203.694545 307.584 
L 171.229091 307.584 
z
" style="fill:#008000;"/>
   </g>
   <g id="patch_6">
    <path clip-path="url(#p4cb00b5c52)" d="M 203.694545 307.584 
L 236.16 307.584 
L 236.16 307.584 
L 203.694545 307.584 
z
" style="fill:#008000;"/>
   </g>
   <g id="patch_7">
    <path clip-path="url(#p4cb00b5c52)" d="M 236.16 307.584 
L 268.625455 307.584 
L 268.625455 307.584 
L 236.16 307.584 
z
" style="fill:#008000;"/>
   </g>
   <g id="patch_8">
    <path clip-path="url(#p4cb00b5c52)" d="M 268.625455 307.584 
L 301.090909 307.584 
L 301.090909 307.584 
L 268.625455 307.584 
z
" style="fill:#008000;"/>
   </g>
   <g id="patch_9">
    <path clip-path="url(#p4cb00b5c52)" d="M 301.090909 307.584 
L 333.556364 307.584 
L 333.556364 307.584 
L 301.090909 307.584 
z
" style="fill:#008000;"/>
   </g>
   <g id="patch_10">
    <path clip-path="url(#p4cb00b5c52)" d="M 333.556364 307.584 
L 366.021818 307.584 
L 366.021818 307.584 
L 333.556364 307.584 
z
" style="fill:#008000;"/>
   </g>
   <g id="patch_11">
    <path clip-path="url(#p4cb00b5c52)" d="M 366.021818 307.584 
L 398.487273 307.584 
L 398.487273 307.584 
L 366.021818 307.584 
z
" style="fill:#008000;"/>
   </g>
  </g>
 </g>
 <defs>
  <clipPath id="p4cb00b5c52">
   <rect height="266.112" width="357.12" x="57.6" y="41.472"/>
  </clipPath>
 </defs>
</svg>
